<mxfile host="Electron" modified="2023-08-12T09:24:21.515Z" agent="Mozilla/5.0 (Macintosh; Intel Mac OS X 10_15_7) AppleWebKit/537.36 (KHTML, like Gecko) draw.io/21.6.8 Chrome/114.0.5735.289 Electron/25.5.0 Safari/537.36" etag="OTIvc9IX741o0yKsIdfp" version="21.6.8" type="device">
  <diagram name="Page-1" id="2WB7vYnpIbUfBO6iShEm">
    <mxGraphModel dx="58" dy="50" grid="1" gridSize="10" guides="1" tooltips="1" connect="1" arrows="1" fold="1" page="1" pageScale="1" pageWidth="900" pageHeight="500" math="0" shadow="0">
      <root>
        <mxCell id="0" />
        <mxCell id="1" parent="0" />
        <mxCell id="5__36FcW5yBwgC9I3LUi-205" value="" style="endArrow=none;html=1;rounded=0;dashed=1;dashPattern=1 2;fillColor=#f8cecc;strokeColor=#b85450;" edge="1" parent="1">
          <mxGeometry width="50" height="50" relative="1" as="geometry">
            <mxPoint x="199.73" y="295" as="sourcePoint" />
            <mxPoint x="199.73" y="275" as="targetPoint" />
          </mxGeometry>
        </mxCell>
        <mxCell id="5__36FcW5yBwgC9I3LUi-136" value="" style="endArrow=none;html=1;rounded=0;fillColor=#f8cecc;strokeColor=#b85450;" edge="1" parent="1">
          <mxGeometry width="50" height="50" relative="1" as="geometry">
            <mxPoint x="229.78" y="140" as="sourcePoint" />
            <mxPoint x="230" y="110" as="targetPoint" />
          </mxGeometry>
        </mxCell>
        <mxCell id="5__36FcW5yBwgC9I3LUi-134" value="" style="endArrow=none;html=1;fillColor=#dae8fc;strokeColor=#6c8ebf;curved=1;" edge="1" parent="1">
          <mxGeometry width="50" height="50" relative="1" as="geometry">
            <mxPoint x="229.78" y="220" as="sourcePoint" />
            <mxPoint x="230" y="140" as="targetPoint" />
            <Array as="points">
              <mxPoint x="220" y="180" />
            </Array>
          </mxGeometry>
        </mxCell>
        <mxCell id="5__36FcW5yBwgC9I3LUi-204" value="" style="endArrow=none;html=1;rounded=0;dashed=1;dashPattern=1 2;fillColor=#f8cecc;strokeColor=#b85450;" edge="1" parent="1">
          <mxGeometry width="50" height="50" relative="1" as="geometry">
            <mxPoint x="199.73" y="227" as="sourcePoint" />
            <mxPoint x="200" y="136" as="targetPoint" />
          </mxGeometry>
        </mxCell>
        <mxCell id="5__36FcW5yBwgC9I3LUi-132" value="" style="endArrow=none;html=1;fillColor=#dae8fc;strokeColor=#6c8ebf;curved=1;" edge="1" parent="1">
          <mxGeometry width="50" height="50" relative="1" as="geometry">
            <mxPoint x="200" y="230" as="sourcePoint" />
            <mxPoint x="210" y="200" as="targetPoint" />
            <Array as="points">
              <mxPoint x="200" y="220" />
            </Array>
          </mxGeometry>
        </mxCell>
        <mxCell id="5__36FcW5yBwgC9I3LUi-169" value="" style="endArrow=none;html=1;fillColor=#dae8fc;strokeColor=#6c8ebf;curved=1;" edge="1" parent="1">
          <mxGeometry width="50" height="50" relative="1" as="geometry">
            <mxPoint x="169.73000000000002" y="250" as="sourcePoint" />
            <mxPoint x="169.99" y="110" as="targetPoint" />
            <Array as="points">
              <mxPoint x="160" y="180" />
            </Array>
          </mxGeometry>
        </mxCell>
        <mxCell id="5__36FcW5yBwgC9I3LUi-222" value="" style="rounded=0;whiteSpace=wrap;html=1;fillColor=none;" vertex="1" parent="1">
          <mxGeometry x="70" y="90" width="210" height="210" as="geometry" />
        </mxCell>
        <mxCell id="5__36FcW5yBwgC9I3LUi-176" value="" style="endArrow=none;html=1;rounded=0;" edge="1" parent="1">
          <mxGeometry width="50" height="50" relative="1" as="geometry">
            <mxPoint x="120" y="250" as="sourcePoint" />
            <mxPoint x="210" y="250.08" as="targetPoint" />
          </mxGeometry>
        </mxCell>
        <mxCell id="5__36FcW5yBwgC9I3LUi-173" value="x" style="text;html=1;strokeColor=none;fillColor=none;align=center;verticalAlign=bottom;whiteSpace=wrap;rounded=0;fontSize=6;" vertex="1" parent="1">
          <mxGeometry x="185" y="245" width="10" height="10" as="geometry" />
        </mxCell>
        <mxCell id="5__36FcW5yBwgC9I3LUi-175" value="x" style="text;html=1;strokeColor=none;fillColor=none;align=center;verticalAlign=bottom;whiteSpace=wrap;rounded=0;fontSize=6;labelBackgroundColor=#FFFFFF55;" vertex="1" parent="1">
          <mxGeometry x="175" y="245" width="10" height="10" as="geometry" />
        </mxCell>
        <mxCell id="5__36FcW5yBwgC9I3LUi-165" value="" style="endArrow=none;html=1;rounded=0;fillColor=#e1d5e7;strokeColor=#9673a6;" edge="1" parent="1">
          <mxGeometry width="50" height="50" relative="1" as="geometry">
            <mxPoint x="170" y="150" as="sourcePoint" />
            <mxPoint x="170.11" y="120" as="targetPoint" />
          </mxGeometry>
        </mxCell>
        <mxCell id="5__36FcW5yBwgC9I3LUi-166" value="&lt;font style=&quot;font-size: 6px;&quot;&gt;510&lt;br&gt;&lt;/font&gt;" style="edgeLabel;html=1;align=center;verticalAlign=middle;resizable=0;points=[];" vertex="1" connectable="0" parent="5__36FcW5yBwgC9I3LUi-165">
          <mxGeometry x="0.1233" relative="1" as="geometry">
            <mxPoint as="offset" />
          </mxGeometry>
        </mxCell>
        <mxCell id="5__36FcW5yBwgC9I3LUi-122" value="" style="endArrow=none;html=1;rounded=0;" edge="1" parent="1" source="5__36FcW5yBwgC9I3LUi-40">
          <mxGeometry width="50" height="50" relative="1" as="geometry">
            <mxPoint x="150" y="250" as="sourcePoint" />
            <mxPoint x="210" y="230" as="targetPoint" />
          </mxGeometry>
        </mxCell>
        <mxCell id="5__36FcW5yBwgC9I3LUi-109" value="" style="shape=waypoint;sketch=0;fillStyle=solid;size=6;pointerEvents=1;points=[];fillColor=#e1d5e7;resizable=0;rotatable=0;perimeter=centerPerimeter;snapToPoint=1;strokeColor=#00CC00;spacingLeft=0;fontSize=6;align=right;spacingRight=13;" vertex="1" parent="1">
          <mxGeometry x="250" y="240" width="20" height="20" as="geometry" />
        </mxCell>
        <mxCell id="5__36FcW5yBwgC9I3LUi-105" value="" style="shape=waypoint;sketch=0;fillStyle=solid;size=6;pointerEvents=1;points=[];fillColor=#e1d5e7;resizable=0;rotatable=0;perimeter=centerPerimeter;snapToPoint=1;strokeColor=#00CC00;spacingLeft=0;fontSize=6;align=right;spacingRight=13;" vertex="1" parent="1">
          <mxGeometry x="250" y="160" width="20" height="20" as="geometry" />
        </mxCell>
        <mxCell id="5__36FcW5yBwgC9I3LUi-74" value="EN" style="shape=waypoint;sketch=0;fillStyle=solid;size=6;pointerEvents=1;points=[];fillColor=#e1d5e7;resizable=0;rotatable=0;perimeter=centerPerimeter;snapToPoint=1;strokeColor=#00CC00;spacingLeft=13;fontSize=6;align=left;spacingRight=0;" vertex="1" parent="1">
          <mxGeometry x="180" y="210" width="20" height="20" as="geometry" />
        </mxCell>
        <mxCell id="5__36FcW5yBwgC9I3LUi-4" value="" style="shape=waypoint;sketch=0;fillStyle=solid;size=6;pointerEvents=1;points=[];fillColor=none;resizable=0;rotatable=0;perimeter=centerPerimeter;snapToPoint=1;fontColor=#9E9E9E;strokeColor=#B3B3B3;" vertex="1" parent="1">
          <mxGeometry x="110" y="140" width="20" height="20" as="geometry" />
        </mxCell>
        <mxCell id="5__36FcW5yBwgC9I3LUi-5" value="" style="shape=waypoint;sketch=0;fillStyle=solid;size=6;pointerEvents=1;points=[];fillColor=none;resizable=0;rotatable=0;perimeter=centerPerimeter;snapToPoint=1;fontColor=#9E9E9E;strokeColor=#B3B3B3;" vertex="1" parent="1">
          <mxGeometry x="110" y="150" width="20" height="20" as="geometry" />
        </mxCell>
        <mxCell id="5__36FcW5yBwgC9I3LUi-6" value="" style="shape=waypoint;sketch=0;fillStyle=solid;size=6;pointerEvents=1;points=[];fillColor=none;resizable=0;rotatable=0;perimeter=centerPerimeter;snapToPoint=1;fontColor=#9E9E9E;strokeColor=#B3B3B3;" vertex="1" parent="1">
          <mxGeometry x="110" y="160" width="20" height="20" as="geometry" />
        </mxCell>
        <mxCell id="5__36FcW5yBwgC9I3LUi-7" value="" style="shape=waypoint;sketch=0;fillStyle=solid;size=6;pointerEvents=1;points=[];fillColor=none;resizable=0;rotatable=0;perimeter=centerPerimeter;snapToPoint=1;fontColor=#9E9E9E;strokeColor=#B3B3B3;" vertex="1" parent="1">
          <mxGeometry x="110" y="170" width="20" height="20" as="geometry" />
        </mxCell>
        <mxCell id="5__36FcW5yBwgC9I3LUi-38" value="GND" style="shape=waypoint;sketch=0;fillStyle=solid;size=6;pointerEvents=1;points=[];fillColor=#000000;resizable=0;rotatable=0;perimeter=centerPerimeter;snapToPoint=1;strokeColor=#0A0000;spacingLeft=13;align=left;fontSize=6;labelBackgroundColor=#FFFFFF99;" vertex="1" parent="1">
          <mxGeometry x="110" y="240" width="20" height="20" as="geometry" />
        </mxCell>
        <mxCell id="5__36FcW5yBwgC9I3LUi-40" value="5V OUT" style="shape=waypoint;sketch=0;fillStyle=solid;size=6;pointerEvents=1;points=[];fillColor=#f8cecc;resizable=0;rotatable=0;perimeter=centerPerimeter;snapToPoint=1;strokeColor=#FF0000;spacingLeft=13;align=left;fontSize=6;labelBackgroundColor=#FFFFFF99;" vertex="1" parent="1">
          <mxGeometry x="110" y="220" width="20" height="20" as="geometry" />
        </mxCell>
        <mxCell id="5__36FcW5yBwgC9I3LUi-48" value="GND" style="shape=waypoint;sketch=0;fillStyle=solid;size=6;pointerEvents=1;points=[];fillColor=#e1d5e7;resizable=0;rotatable=0;perimeter=centerPerimeter;snapToPoint=1;strokeColor=#0E0B0F;spacingLeft=0;fontSize=6;align=right;spacingRight=13;" vertex="1" parent="1">
          <mxGeometry x="230" y="140" width="20" height="20" as="geometry" />
        </mxCell>
        <mxCell id="5__36FcW5yBwgC9I3LUi-49" value="VM" style="shape=waypoint;sketch=0;fillStyle=solid;size=6;pointerEvents=1;points=[];fillColor=#e1d5e7;resizable=0;rotatable=0;perimeter=centerPerimeter;snapToPoint=1;strokeColor=#ff0000;spacingLeft=0;fontSize=6;align=right;spacingRight=13;" vertex="1" parent="1">
          <mxGeometry x="230" y="130" width="20" height="20" as="geometry" />
        </mxCell>
        <mxCell id="5__36FcW5yBwgC9I3LUi-51" value="M2B" style="shape=waypoint;sketch=0;fillStyle=solid;size=6;pointerEvents=1;points=[];fillColor=#e1d5e7;resizable=0;rotatable=0;perimeter=centerPerimeter;snapToPoint=1;strokeColor=#00CC00;spacingLeft=0;fontSize=6;align=right;spacingRight=13;" vertex="1" parent="1">
          <mxGeometry x="230" y="150" width="20" height="20" as="geometry" />
        </mxCell>
        <mxCell id="5__36FcW5yBwgC9I3LUi-52" value="M2A" style="shape=waypoint;sketch=0;fillStyle=solid;size=6;pointerEvents=1;points=[];fillColor=#e1d5e7;resizable=0;rotatable=0;perimeter=centerPerimeter;snapToPoint=1;strokeColor=#00CC00;spacingLeft=0;fontSize=6;align=right;spacingRight=13;" vertex="1" parent="1">
          <mxGeometry x="230" y="160" width="20" height="20" as="geometry" />
        </mxCell>
        <mxCell id="5__36FcW5yBwgC9I3LUi-53" value="M1A" style="shape=waypoint;sketch=0;fillStyle=solid;size=6;pointerEvents=1;points=[];fillColor=#e1d5e7;resizable=0;rotatable=0;perimeter=centerPerimeter;snapToPoint=1;strokeColor=#00CC00;spacingLeft=0;fontSize=6;align=right;spacingRight=13;" vertex="1" parent="1">
          <mxGeometry x="230" y="170" width="20" height="20" as="geometry" />
        </mxCell>
        <mxCell id="5__36FcW5yBwgC9I3LUi-54" value="M1B" style="shape=waypoint;sketch=0;fillStyle=solid;size=6;pointerEvents=1;points=[];fillColor=#e1d5e7;resizable=0;rotatable=0;perimeter=centerPerimeter;snapToPoint=1;strokeColor=#00CC00;spacingLeft=0;fontSize=6;align=right;spacingRight=13;" vertex="1" parent="1">
          <mxGeometry x="230" y="180" width="20" height="20" as="geometry" />
        </mxCell>
        <mxCell id="5__36FcW5yBwgC9I3LUi-55" value="VIO" style="shape=waypoint;sketch=0;fillStyle=solid;size=6;pointerEvents=1;points=[];fillColor=#e1d5e7;resizable=0;rotatable=0;perimeter=centerPerimeter;snapToPoint=1;strokeColor=#ff0000;spacingLeft=0;fontSize=6;align=right;spacingRight=13;" vertex="1" parent="1">
          <mxGeometry x="230" y="190" width="20" height="20" as="geometry" />
        </mxCell>
        <mxCell id="5__36FcW5yBwgC9I3LUi-56" value="GND" style="shape=waypoint;sketch=0;fillStyle=solid;size=6;pointerEvents=1;points=[];fillColor=#e1d5e7;resizable=0;rotatable=0;perimeter=centerPerimeter;snapToPoint=1;strokeColor=#0E0B0F;spacingLeft=0;fontSize=6;align=right;spacingRight=13;" vertex="1" parent="1">
          <mxGeometry x="230" y="200" width="20" height="20" as="geometry" />
        </mxCell>
        <mxCell id="5__36FcW5yBwgC9I3LUi-57" value="EN" style="shape=waypoint;sketch=0;fillStyle=solid;size=6;pointerEvents=1;points=[];fillColor=#e1d5e7;resizable=0;rotatable=0;perimeter=centerPerimeter;snapToPoint=1;strokeColor=#00CC00;spacingLeft=13;fontSize=6;align=left;spacingRight=0;" vertex="1" parent="1">
          <mxGeometry x="180" y="130" width="20" height="20" as="geometry" />
        </mxCell>
        <mxCell id="5__36FcW5yBwgC9I3LUi-58" value="DIR" style="shape=waypoint;sketch=0;fillStyle=solid;size=6;pointerEvents=1;points=[];fillColor=#e1d5e7;resizable=0;rotatable=0;perimeter=centerPerimeter;snapToPoint=1;strokeColor=#00CC00;spacingLeft=13;fontSize=6;align=left;spacingRight=0;" vertex="1" parent="1">
          <mxGeometry x="180" y="200" width="20" height="20" as="geometry" />
        </mxCell>
        <mxCell id="5__36FcW5yBwgC9I3LUi-59" value="STEP" style="shape=waypoint;sketch=0;fillStyle=solid;size=6;pointerEvents=1;points=[];fillColor=#e1d5e7;resizable=0;rotatable=0;perimeter=centerPerimeter;snapToPoint=1;strokeColor=#00CC00;spacingLeft=13;fontSize=6;align=left;spacingRight=0;" vertex="1" parent="1">
          <mxGeometry x="180" y="190" width="20" height="20" as="geometry" />
        </mxCell>
        <mxCell id="5__36FcW5yBwgC9I3LUi-66" value="GND" style="shape=waypoint;sketch=0;fillStyle=solid;size=6;pointerEvents=1;points=[];fillColor=#e1d5e7;resizable=0;rotatable=0;perimeter=centerPerimeter;snapToPoint=1;strokeColor=#0E0B0F;spacingLeft=0;fontSize=6;align=right;spacingRight=13;" vertex="1" parent="1">
          <mxGeometry x="230" y="220" width="20" height="20" as="geometry" />
        </mxCell>
        <mxCell id="5__36FcW5yBwgC9I3LUi-67" value="VM" style="shape=waypoint;sketch=0;fillStyle=solid;size=6;pointerEvents=1;points=[];fillColor=#e1d5e7;resizable=0;rotatable=0;perimeter=centerPerimeter;snapToPoint=1;strokeColor=#ff0000;spacingLeft=0;fontSize=6;align=right;spacingRight=13;" vertex="1" parent="1">
          <mxGeometry x="230" y="210" width="20" height="20" as="geometry" />
        </mxCell>
        <mxCell id="5__36FcW5yBwgC9I3LUi-68" value="M2B" style="shape=waypoint;sketch=0;fillStyle=solid;size=6;pointerEvents=1;points=[];fillColor=#e1d5e7;resizable=0;rotatable=0;perimeter=centerPerimeter;snapToPoint=1;strokeColor=#00CC00;spacingLeft=0;fontSize=6;align=right;spacingRight=13;" vertex="1" parent="1">
          <mxGeometry x="230" y="230" width="20" height="20" as="geometry" />
        </mxCell>
        <mxCell id="5__36FcW5yBwgC9I3LUi-69" value="M2A" style="shape=waypoint;sketch=0;fillStyle=solid;size=6;pointerEvents=1;points=[];fillColor=#e1d5e7;resizable=0;rotatable=0;perimeter=centerPerimeter;snapToPoint=1;strokeColor=#00CC00;spacingLeft=0;fontSize=6;align=right;spacingRight=13;" vertex="1" parent="1">
          <mxGeometry x="230" y="240" width="20" height="20" as="geometry" />
        </mxCell>
        <mxCell id="5__36FcW5yBwgC9I3LUi-70" value="M1A" style="shape=waypoint;sketch=0;fillStyle=solid;size=6;pointerEvents=1;points=[];fillColor=#e1d5e7;resizable=0;rotatable=0;perimeter=centerPerimeter;snapToPoint=1;strokeColor=#00CC00;spacingLeft=0;fontSize=6;align=right;spacingRight=13;" vertex="1" parent="1">
          <mxGeometry x="230" y="250" width="20" height="20" as="geometry" />
        </mxCell>
        <mxCell id="5__36FcW5yBwgC9I3LUi-71" value="M1B" style="shape=waypoint;sketch=0;fillStyle=solid;size=6;pointerEvents=1;points=[];fillColor=#e1d5e7;resizable=0;rotatable=0;perimeter=centerPerimeter;snapToPoint=1;strokeColor=#00CC00;spacingLeft=0;fontSize=6;align=right;spacingRight=13;" vertex="1" parent="1">
          <mxGeometry x="230" y="260" width="20" height="20" as="geometry" />
        </mxCell>
        <mxCell id="5__36FcW5yBwgC9I3LUi-72" value="VIO" style="shape=waypoint;sketch=0;fillStyle=solid;size=6;pointerEvents=1;points=[];fillColor=#e1d5e7;resizable=0;rotatable=0;perimeter=centerPerimeter;snapToPoint=1;strokeColor=#ff0000;spacingLeft=0;fontSize=6;align=right;spacingRight=13;" vertex="1" parent="1">
          <mxGeometry x="230" y="270" width="20" height="20" as="geometry" />
        </mxCell>
        <mxCell id="5__36FcW5yBwgC9I3LUi-73" value="GND" style="shape=waypoint;sketch=0;fillStyle=solid;size=6;pointerEvents=1;points=[];fillColor=#e1d5e7;resizable=0;rotatable=0;perimeter=centerPerimeter;snapToPoint=1;strokeColor=#0E0B0F;spacingLeft=0;fontSize=6;align=right;spacingRight=13;" vertex="1" parent="1">
          <mxGeometry x="230" y="280" width="20" height="20" as="geometry" />
        </mxCell>
        <mxCell id="5__36FcW5yBwgC9I3LUi-75" value="DIR" style="shape=waypoint;sketch=0;fillStyle=solid;size=6;pointerEvents=1;points=[];fillColor=#e1d5e7;resizable=0;rotatable=0;perimeter=centerPerimeter;snapToPoint=1;strokeColor=#00CC00;spacingLeft=13;fontSize=6;align=left;spacingRight=0;" vertex="1" parent="1">
          <mxGeometry x="180" y="280" width="20" height="20" as="geometry" />
        </mxCell>
        <mxCell id="5__36FcW5yBwgC9I3LUi-76" value="STEP" style="shape=waypoint;sketch=0;fillStyle=solid;size=6;pointerEvents=1;points=[];fillColor=#e1d5e7;resizable=0;rotatable=0;perimeter=centerPerimeter;snapToPoint=1;strokeColor=#00CC00;spacingLeft=13;fontSize=6;align=left;spacingRight=0;" vertex="1" parent="1">
          <mxGeometry x="180" y="270" width="20" height="20" as="geometry" />
        </mxCell>
        <mxCell id="5__36FcW5yBwgC9I3LUi-82" value="PB2" style="shape=waypoint;sketch=0;fillStyle=solid;size=6;pointerEvents=1;points=[];fillColor=#e1d5e7;resizable=0;rotatable=0;perimeter=centerPerimeter;snapToPoint=1;strokeColor=#00CC00;spacingLeft=0;fontSize=6;align=right;spacingRight=13;" vertex="1" parent="1">
          <mxGeometry x="170" y="270" width="20" height="20" as="geometry" />
        </mxCell>
        <mxCell id="5__36FcW5yBwgC9I3LUi-84" value="PD1" style="shape=waypoint;sketch=0;fillStyle=solid;size=6;pointerEvents=1;points=[];fillColor=#e1d5e7;resizable=0;rotatable=0;perimeter=centerPerimeter;snapToPoint=1;strokeColor=#00CC00;spacingLeft=0;fontSize=6;align=right;spacingRight=13;" vertex="1" parent="1">
          <mxGeometry x="170" y="210" width="20" height="20" as="geometry" />
        </mxCell>
        <mxCell id="5__36FcW5yBwgC9I3LUi-85" value="PD0" style="shape=waypoint;sketch=0;fillStyle=solid;size=6;pointerEvents=1;points=[];fillColor=#e1d5e7;resizable=0;rotatable=0;perimeter=centerPerimeter;snapToPoint=1;strokeColor=#00CC00;spacingLeft=0;fontSize=6;align=right;spacingRight=13;" vertex="1" parent="1">
          <mxGeometry x="170" y="200" width="20" height="20" as="geometry" />
        </mxCell>
        <mxCell id="5__36FcW5yBwgC9I3LUi-86" value="PD4" style="shape=waypoint;sketch=0;fillStyle=solid;size=6;pointerEvents=1;points=[];fillColor=#e1d5e7;resizable=0;rotatable=0;perimeter=centerPerimeter;snapToPoint=1;strokeColor=#00CC00;spacingLeft=0;fontSize=6;align=right;spacingRight=13;" vertex="1" parent="1">
          <mxGeometry x="170" y="190" width="20" height="20" as="geometry" />
        </mxCell>
        <mxCell id="5__36FcW5yBwgC9I3LUi-87" value="PB6" style="shape=waypoint;sketch=0;fillStyle=solid;size=6;pointerEvents=1;points=[];fillColor=#e1d5e7;resizable=0;rotatable=0;perimeter=centerPerimeter;snapToPoint=1;strokeColor=#00CC00;spacingLeft=0;fontSize=6;align=right;spacingRight=13;" vertex="1" parent="1">
          <mxGeometry x="170" y="130" width="20" height="20" as="geometry" />
        </mxCell>
        <mxCell id="5__36FcW5yBwgC9I3LUi-89" value="" style="endArrow=none;html=1;rounded=0;exitX=0.252;exitY=0.448;exitDx=0;exitDy=0;exitPerimeter=0;entryX=0.661;entryY=0.061;entryDx=0;entryDy=0;entryPerimeter=0;" edge="1" parent="1" source="5__36FcW5yBwgC9I3LUi-87" target="5__36FcW5yBwgC9I3LUi-57">
          <mxGeometry width="50" height="50" relative="1" as="geometry">
            <mxPoint x="160" y="160" as="sourcePoint" />
            <mxPoint x="210" y="110" as="targetPoint" />
          </mxGeometry>
        </mxCell>
        <mxCell id="5__36FcW5yBwgC9I3LUi-91" value="" style="endArrow=none;html=1;rounded=0;" edge="1" parent="1" source="5__36FcW5yBwgC9I3LUi-51" target="5__36FcW5yBwgC9I3LUi-104">
          <mxGeometry width="50" height="50" relative="1" as="geometry">
            <mxPoint x="280" y="159.73" as="sourcePoint" />
            <mxPoint x="300" y="159.73" as="targetPoint" />
          </mxGeometry>
        </mxCell>
        <mxCell id="5__36FcW5yBwgC9I3LUi-92" value="" style="endArrow=none;html=1;rounded=0;entryX=1.18;entryY=0.517;entryDx=0;entryDy=0;entryPerimeter=0;" edge="1" parent="1" source="5__36FcW5yBwgC9I3LUi-76" target="5__36FcW5yBwgC9I3LUi-82">
          <mxGeometry width="50" height="50" relative="1" as="geometry">
            <mxPoint x="140" y="390" as="sourcePoint" />
            <mxPoint x="160" y="390" as="targetPoint" />
          </mxGeometry>
        </mxCell>
        <mxCell id="5__36FcW5yBwgC9I3LUi-93" value="" style="endArrow=none;html=1;rounded=0;entryX=0.702;entryY=0.104;entryDx=0;entryDy=0;entryPerimeter=0;" edge="1" parent="1" source="5__36FcW5yBwgC9I3LUi-84" target="5__36FcW5yBwgC9I3LUi-74">
          <mxGeometry width="50" height="50" relative="1" as="geometry">
            <mxPoint x="140" y="390" as="sourcePoint" />
            <mxPoint x="160" y="390" as="targetPoint" />
          </mxGeometry>
        </mxCell>
        <mxCell id="5__36FcW5yBwgC9I3LUi-94" value="" style="endArrow=none;html=1;rounded=0;entryX=1.159;entryY=0.952;entryDx=0;entryDy=0;entryPerimeter=0;" edge="1" parent="1" source="5__36FcW5yBwgC9I3LUi-59" target="5__36FcW5yBwgC9I3LUi-86">
          <mxGeometry width="50" height="50" relative="1" as="geometry">
            <mxPoint x="170" y="320" as="sourcePoint" />
            <mxPoint x="190" y="320" as="targetPoint" />
          </mxGeometry>
        </mxCell>
        <mxCell id="5__36FcW5yBwgC9I3LUi-95" value="" style="endArrow=none;html=1;rounded=0;" edge="1" parent="1" source="5__36FcW5yBwgC9I3LUi-85" target="5__36FcW5yBwgC9I3LUi-58">
          <mxGeometry width="50" height="50" relative="1" as="geometry">
            <mxPoint x="160" y="340" as="sourcePoint" />
            <mxPoint x="180" y="340" as="targetPoint" />
          </mxGeometry>
        </mxCell>
        <mxCell id="5__36FcW5yBwgC9I3LUi-102" value="" style="shape=waypoint;sketch=0;fillStyle=solid;size=6;pointerEvents=1;points=[];fillColor=#e1d5e7;resizable=0;rotatable=0;perimeter=centerPerimeter;snapToPoint=1;strokeColor=#00CC00;spacingLeft=0;fontSize=6;align=right;spacingRight=13;" vertex="1" parent="1">
          <mxGeometry x="250" y="170" width="20" height="20" as="geometry" />
        </mxCell>
        <mxCell id="5__36FcW5yBwgC9I3LUi-103" value="" style="shape=waypoint;sketch=0;fillStyle=solid;size=6;pointerEvents=1;points=[];fillColor=#e1d5e7;resizable=0;rotatable=0;perimeter=centerPerimeter;snapToPoint=1;strokeColor=#00CC00;spacingLeft=0;fontSize=6;align=right;spacingRight=13;" vertex="1" parent="1">
          <mxGeometry x="250" y="180" width="20" height="20" as="geometry" />
        </mxCell>
        <mxCell id="5__36FcW5yBwgC9I3LUi-104" value="" style="shape=waypoint;sketch=0;fillStyle=solid;size=6;pointerEvents=1;points=[];fillColor=#e1d5e7;resizable=0;rotatable=0;perimeter=centerPerimeter;snapToPoint=1;strokeColor=#00CC00;spacingLeft=0;fontSize=6;align=right;spacingRight=13;" vertex="1" parent="1">
          <mxGeometry x="250" y="150" width="20" height="20" as="geometry" />
        </mxCell>
        <mxCell id="5__36FcW5yBwgC9I3LUi-106" value="" style="shape=waypoint;sketch=0;fillStyle=solid;size=6;pointerEvents=1;points=[];fillColor=#e1d5e7;resizable=0;rotatable=0;perimeter=centerPerimeter;snapToPoint=1;strokeColor=#00CC00;spacingLeft=0;fontSize=6;align=right;spacingRight=13;" vertex="1" parent="1">
          <mxGeometry x="250" y="250" width="20" height="20" as="geometry" />
        </mxCell>
        <mxCell id="5__36FcW5yBwgC9I3LUi-107" value="" style="shape=waypoint;sketch=0;fillStyle=solid;size=6;pointerEvents=1;points=[];fillColor=#e1d5e7;resizable=0;rotatable=0;perimeter=centerPerimeter;snapToPoint=1;strokeColor=#00CC00;spacingLeft=0;fontSize=6;align=right;spacingRight=13;" vertex="1" parent="1">
          <mxGeometry x="250" y="260" width="20" height="20" as="geometry" />
        </mxCell>
        <mxCell id="5__36FcW5yBwgC9I3LUi-108" value="" style="shape=waypoint;sketch=0;fillStyle=solid;size=6;pointerEvents=1;points=[];fillColor=#e1d5e7;resizable=0;rotatable=0;perimeter=centerPerimeter;snapToPoint=1;strokeColor=#00CC00;spacingLeft=0;fontSize=6;align=right;spacingRight=13;" vertex="1" parent="1">
          <mxGeometry x="250" y="230" width="20" height="20" as="geometry" />
        </mxCell>
        <mxCell id="5__36FcW5yBwgC9I3LUi-110" value="" style="endArrow=none;html=1;rounded=0;" edge="1" parent="1" source="5__36FcW5yBwgC9I3LUi-52" target="5__36FcW5yBwgC9I3LUi-105">
          <mxGeometry width="50" height="50" relative="1" as="geometry">
            <mxPoint x="290" y="169.73" as="sourcePoint" />
            <mxPoint x="310" y="169.73" as="targetPoint" />
          </mxGeometry>
        </mxCell>
        <mxCell id="5__36FcW5yBwgC9I3LUi-111" value="" style="endArrow=none;html=1;rounded=0;" edge="1" parent="1" source="5__36FcW5yBwgC9I3LUi-53" target="5__36FcW5yBwgC9I3LUi-102">
          <mxGeometry width="50" height="50" relative="1" as="geometry">
            <mxPoint x="300" y="179.73" as="sourcePoint" />
            <mxPoint x="310" y="170" as="targetPoint" />
          </mxGeometry>
        </mxCell>
        <mxCell id="5__36FcW5yBwgC9I3LUi-112" value="" style="endArrow=none;html=1;rounded=0;entryX=0.487;entryY=0.323;entryDx=0;entryDy=0;entryPerimeter=0;" edge="1" parent="1" source="5__36FcW5yBwgC9I3LUi-54" target="5__36FcW5yBwgC9I3LUi-103">
          <mxGeometry width="50" height="50" relative="1" as="geometry">
            <mxPoint x="310" y="189.73" as="sourcePoint" />
            <mxPoint x="330" y="189.73" as="targetPoint" />
          </mxGeometry>
        </mxCell>
        <mxCell id="5__36FcW5yBwgC9I3LUi-113" value="" style="endArrow=none;html=1;rounded=0;" edge="1" parent="1" source="5__36FcW5yBwgC9I3LUi-68" target="5__36FcW5yBwgC9I3LUi-108">
          <mxGeometry width="50" height="50" relative="1" as="geometry">
            <mxPoint x="300" y="230" as="sourcePoint" />
            <mxPoint x="320" y="230" as="targetPoint" />
          </mxGeometry>
        </mxCell>
        <mxCell id="5__36FcW5yBwgC9I3LUi-114" value="" style="endArrow=none;html=1;rounded=0;fontStyle=1;entryX=0.967;entryY=0.483;entryDx=0;entryDy=0;entryPerimeter=0;" edge="1" parent="1" source="5__36FcW5yBwgC9I3LUi-69" target="5__36FcW5yBwgC9I3LUi-109">
          <mxGeometry width="50" height="50" relative="1" as="geometry">
            <mxPoint x="310" y="240" as="sourcePoint" />
            <mxPoint x="330" y="240" as="targetPoint" />
          </mxGeometry>
        </mxCell>
        <mxCell id="5__36FcW5yBwgC9I3LUi-115" value="" style="endArrow=none;html=1;rounded=0;" edge="1" parent="1" source="5__36FcW5yBwgC9I3LUi-70" target="5__36FcW5yBwgC9I3LUi-106">
          <mxGeometry width="50" height="50" relative="1" as="geometry">
            <mxPoint x="320" y="250" as="sourcePoint" />
            <mxPoint x="270" y="250" as="targetPoint" />
          </mxGeometry>
        </mxCell>
        <mxCell id="5__36FcW5yBwgC9I3LUi-116" value="" style="endArrow=none;html=1;rounded=0;" edge="1" parent="1" source="5__36FcW5yBwgC9I3LUi-71" target="5__36FcW5yBwgC9I3LUi-107">
          <mxGeometry width="50" height="50" relative="1" as="geometry">
            <mxPoint x="330" y="260" as="sourcePoint" />
            <mxPoint x="350" y="260" as="targetPoint" />
          </mxGeometry>
        </mxCell>
        <mxCell id="5__36FcW5yBwgC9I3LUi-118" value="" style="shape=waypoint;sketch=0;fillStyle=solid;size=6;pointerEvents=1;points=[];fillColor=#e1d5e7;resizable=0;rotatable=0;perimeter=centerPerimeter;snapToPoint=1;strokeColor=#ff0000;spacingLeft=0;fontSize=6;align=right;spacingRight=13;" vertex="1" parent="1">
          <mxGeometry x="220" y="100" width="20" height="20" as="geometry" />
        </mxCell>
        <mxCell id="5__36FcW5yBwgC9I3LUi-119" value="" style="shape=waypoint;sketch=0;fillStyle=solid;size=6;pointerEvents=1;points=[];fillColor=#e1d5e7;resizable=0;rotatable=0;perimeter=centerPerimeter;snapToPoint=1;strokeColor=#0E0B0F;spacingLeft=0;fontSize=6;align=right;spacingRight=13;" vertex="1" parent="1">
          <mxGeometry x="200" y="100" width="20" height="20" as="geometry" />
        </mxCell>
        <mxCell id="5__36FcW5yBwgC9I3LUi-123" value="" style="edgeStyle=orthogonalEdgeStyle;rounded=0;orthogonalLoop=1;jettySize=auto;html=1;strokeColor=none;endArrow=none;endFill=0;" edge="1" parent="1" target="5__36FcW5yBwgC9I3LUi-40">
          <mxGeometry relative="1" as="geometry">
            <mxPoint x="180" y="230" as="sourcePoint" />
          </mxGeometry>
        </mxCell>
        <mxCell id="5__36FcW5yBwgC9I3LUi-126" value="" style="endArrow=none;html=1;rounded=0;" edge="1" parent="1" target="5__36FcW5yBwgC9I3LUi-73">
          <mxGeometry width="50" height="50" relative="1" as="geometry">
            <mxPoint x="210" y="290" as="sourcePoint" />
            <mxPoint x="210" y="220" as="targetPoint" />
          </mxGeometry>
        </mxCell>
        <mxCell id="5__36FcW5yBwgC9I3LUi-127" value="" style="endArrow=none;html=1;fillColor=#dae8fc;strokeColor=#6c8ebf;curved=1;" edge="1" parent="1">
          <mxGeometry width="50" height="50" relative="1" as="geometry">
            <mxPoint x="210" y="290" as="sourcePoint" />
            <mxPoint x="210" y="250" as="targetPoint" />
            <Array as="points">
              <mxPoint x="220" y="270" />
            </Array>
          </mxGeometry>
        </mxCell>
        <mxCell id="5__36FcW5yBwgC9I3LUi-128" value="" style="endArrow=none;html=1;fillColor=#dae8fc;strokeColor=#6c8ebf;curved=1;" edge="1" parent="1">
          <mxGeometry width="50" height="50" relative="1" as="geometry">
            <mxPoint x="219.78" y="280" as="sourcePoint" />
            <mxPoint x="210" y="230" as="targetPoint" />
            <Array as="points">
              <mxPoint x="220" y="250" />
            </Array>
          </mxGeometry>
        </mxCell>
        <mxCell id="5__36FcW5yBwgC9I3LUi-129" value="" style="endArrow=none;html=1;rounded=0;" edge="1" parent="1">
          <mxGeometry width="50" height="50" relative="1" as="geometry">
            <mxPoint x="220" y="280" as="sourcePoint" />
            <mxPoint x="240" y="280" as="targetPoint" />
          </mxGeometry>
        </mxCell>
        <mxCell id="5__36FcW5yBwgC9I3LUi-130" value="" style="endArrow=none;html=1;rounded=0;" edge="1" parent="1" target="5__36FcW5yBwgC9I3LUi-55">
          <mxGeometry width="50" height="50" relative="1" as="geometry">
            <mxPoint x="210" y="199.89" as="sourcePoint" />
            <mxPoint x="230" y="200" as="targetPoint" />
          </mxGeometry>
        </mxCell>
        <mxCell id="5__36FcW5yBwgC9I3LUi-131" value="" style="endArrow=none;html=1;rounded=0;" edge="1" parent="1">
          <mxGeometry width="50" height="50" relative="1" as="geometry">
            <mxPoint x="240" y="210" as="sourcePoint" />
            <mxPoint x="210" y="209.89000000000001" as="targetPoint" />
          </mxGeometry>
        </mxCell>
        <mxCell id="5__36FcW5yBwgC9I3LUi-133" value="" style="endArrow=none;html=1;fillColor=#dae8fc;strokeColor=#6c8ebf;curved=1;" edge="1" parent="1">
          <mxGeometry width="50" height="50" relative="1" as="geometry">
            <mxPoint x="199.78" y="250" as="sourcePoint" />
            <mxPoint x="210" y="210" as="targetPoint" />
            <Array as="points">
              <mxPoint x="210" y="230" />
            </Array>
          </mxGeometry>
        </mxCell>
        <mxCell id="5__36FcW5yBwgC9I3LUi-137" value="" style="endArrow=none;html=1;rounded=0;" edge="1" parent="1">
          <mxGeometry width="50" height="50" relative="1" as="geometry">
            <mxPoint x="230" y="140" as="sourcePoint" />
            <mxPoint x="240" y="139.78" as="targetPoint" />
          </mxGeometry>
        </mxCell>
        <mxCell id="5__36FcW5yBwgC9I3LUi-138" value="" style="endArrow=none;html=1;rounded=0;fillColor=#f8cecc;strokeColor=#b85450;" edge="1" parent="1" target="5__36FcW5yBwgC9I3LUi-119">
          <mxGeometry width="50" height="50" relative="1" as="geometry">
            <mxPoint x="209.89" y="150" as="sourcePoint" />
            <mxPoint x="210.11" y="120" as="targetPoint" />
          </mxGeometry>
        </mxCell>
        <mxCell id="5__36FcW5yBwgC9I3LUi-139" value="" style="endArrow=none;html=1;rounded=0;" edge="1" parent="1">
          <mxGeometry width="50" height="50" relative="1" as="geometry">
            <mxPoint x="210" y="149.78" as="sourcePoint" />
            <mxPoint x="240" y="150" as="targetPoint" />
          </mxGeometry>
        </mxCell>
        <mxCell id="5__36FcW5yBwgC9I3LUi-140" value="" style="endArrow=none;html=1;fillColor=#dae8fc;strokeColor=#6c8ebf;curved=1;" edge="1" parent="1">
          <mxGeometry width="50" height="50" relative="1" as="geometry">
            <mxPoint x="229.78" y="230" as="sourcePoint" />
            <mxPoint x="210" y="150" as="targetPoint" />
            <Array as="points">
              <mxPoint x="210" y="190" />
            </Array>
          </mxGeometry>
        </mxCell>
        <mxCell id="5__36FcW5yBwgC9I3LUi-141" value="" style="endArrow=none;html=1;rounded=0;entryX=1.159;entryY=0.952;entryDx=0;entryDy=0;entryPerimeter=0;" edge="1" parent="1">
          <mxGeometry width="50" height="50" relative="1" as="geometry">
            <mxPoint x="240" y="230" as="sourcePoint" />
            <mxPoint x="230" y="230" as="targetPoint" />
          </mxGeometry>
        </mxCell>
        <mxCell id="5__36FcW5yBwgC9I3LUi-142" value="" style="endArrow=none;html=1;rounded=0;entryX=1.159;entryY=0.952;entryDx=0;entryDy=0;entryPerimeter=0;" edge="1" parent="1">
          <mxGeometry width="50" height="50" relative="1" as="geometry">
            <mxPoint x="250" y="240" as="sourcePoint" />
            <mxPoint x="240" y="240" as="targetPoint" />
          </mxGeometry>
        </mxCell>
        <mxCell id="5__36FcW5yBwgC9I3LUi-143" value="" style="endArrow=none;html=1;rounded=0;entryX=1.159;entryY=0.952;entryDx=0;entryDy=0;entryPerimeter=0;" edge="1" parent="1">
          <mxGeometry width="50" height="50" relative="1" as="geometry">
            <mxPoint x="240" y="220" as="sourcePoint" />
            <mxPoint x="230" y="220" as="targetPoint" />
          </mxGeometry>
        </mxCell>
        <mxCell id="5__36FcW5yBwgC9I3LUi-144" value="" style="shape=waypoint;sketch=0;fillStyle=solid;size=6;pointerEvents=1;points=[];fillColor=#e1d5e7;resizable=0;rotatable=0;perimeter=centerPerimeter;snapToPoint=1;strokeColor=#0E0B0F;spacingLeft=0;fontSize=6;align=right;spacingRight=13;" vertex="1" parent="1">
          <mxGeometry x="80" y="240" width="20" height="20" as="geometry" />
        </mxCell>
        <mxCell id="5__36FcW5yBwgC9I3LUi-145" value="" style="shape=waypoint;sketch=0;fillStyle=solid;size=6;pointerEvents=1;points=[];fillColor=#e1d5e7;resizable=0;rotatable=0;perimeter=centerPerimeter;snapToPoint=1;strokeColor=#ff0000;spacingLeft=0;fontSize=6;align=right;spacingRight=13;" vertex="1" parent="1">
          <mxGeometry x="80" y="220" width="20" height="20" as="geometry" />
        </mxCell>
        <mxCell id="5__36FcW5yBwgC9I3LUi-146" value="" style="shape=waypoint;sketch=0;fillStyle=solid;size=6;pointerEvents=1;points=[];fillColor=#e1d5e7;resizable=0;rotatable=0;perimeter=centerPerimeter;snapToPoint=1;strokeColor=#00CC00;spacingLeft=0;fontSize=6;align=right;spacingRight=13;" vertex="1" parent="1">
          <mxGeometry x="80" y="180" width="20" height="20" as="geometry" />
        </mxCell>
        <mxCell id="5__36FcW5yBwgC9I3LUi-147" value="" style="endArrow=none;html=1;rounded=0;" edge="1" parent="1">
          <mxGeometry width="50" height="50" relative="1" as="geometry">
            <mxPoint x="90" y="249.64" as="sourcePoint" />
            <mxPoint x="120" y="249.64" as="targetPoint" />
          </mxGeometry>
        </mxCell>
        <mxCell id="5__36FcW5yBwgC9I3LUi-148" value="" style="endArrow=none;html=1;rounded=0;" edge="1" parent="1">
          <mxGeometry width="50" height="50" relative="1" as="geometry">
            <mxPoint x="90" y="229.82" as="sourcePoint" />
            <mxPoint x="120" y="229.82" as="targetPoint" />
          </mxGeometry>
        </mxCell>
        <mxCell id="5__36FcW5yBwgC9I3LUi-149" value="" style="endArrow=none;html=1;rounded=0;" edge="1" parent="1">
          <mxGeometry width="50" height="50" relative="1" as="geometry">
            <mxPoint x="90" y="189.64" as="sourcePoint" />
            <mxPoint x="120" y="189.64" as="targetPoint" />
          </mxGeometry>
        </mxCell>
        <mxCell id="5__36FcW5yBwgC9I3LUi-150" value="PF1" style="shape=waypoint;sketch=0;fillStyle=solid;size=6;pointerEvents=1;points=[];fillColor=#e1d5e7;resizable=0;rotatable=0;perimeter=centerPerimeter;snapToPoint=1;strokeColor=#00CC00;spacingLeft=13;fontSize=6;align=left;spacingRight=0;" vertex="1" parent="1">
          <mxGeometry x="110" y="180" width="20" height="20" as="geometry" />
        </mxCell>
        <mxCell id="5__36FcW5yBwgC9I3LUi-152" value="" style="shape=waypoint;sketch=0;fillStyle=solid;size=6;pointerEvents=1;points=[];fillColor=none;resizable=0;rotatable=0;perimeter=centerPerimeter;snapToPoint=1;fontColor=#9E9E9E;strokeColor=#B3B3B3;" vertex="1" parent="1">
          <mxGeometry x="80" y="200" width="20" height="20" as="geometry" />
        </mxCell>
        <mxCell id="5__36FcW5yBwgC9I3LUi-153" value="" style="endArrow=none;html=1;rounded=0;fillColor=#e1d5e7;strokeColor=#9673a6;" edge="1" parent="1">
          <mxGeometry width="50" height="50" relative="1" as="geometry">
            <mxPoint x="130" y="230" as="sourcePoint" />
            <mxPoint x="130.11" y="190" as="targetPoint" />
          </mxGeometry>
        </mxCell>
        <mxCell id="5__36FcW5yBwgC9I3LUi-155" value="&lt;font style=&quot;font-size: 6px;&quot;&gt;4k7&lt;/font&gt;" style="edgeLabel;html=1;align=center;verticalAlign=middle;resizable=0;points=[];" vertex="1" connectable="0" parent="5__36FcW5yBwgC9I3LUi-153">
          <mxGeometry x="0.1233" relative="1" as="geometry">
            <mxPoint as="offset" />
          </mxGeometry>
        </mxCell>
        <mxCell id="5__36FcW5yBwgC9I3LUi-154" value="" style="endArrow=none;html=1;rounded=0;" edge="1" parent="1">
          <mxGeometry width="50" height="50" relative="1" as="geometry">
            <mxPoint x="120" y="190" as="sourcePoint" />
            <mxPoint x="130" y="190" as="targetPoint" />
          </mxGeometry>
        </mxCell>
        <mxCell id="5__36FcW5yBwgC9I3LUi-157" value="" style="endArrow=none;html=1;rounded=0;" edge="1" parent="1">
          <mxGeometry width="50" height="50" relative="1" as="geometry">
            <mxPoint x="120" y="280" as="sourcePoint" />
            <mxPoint x="119.86" y="290" as="targetPoint" />
          </mxGeometry>
        </mxCell>
        <mxCell id="5__36FcW5yBwgC9I3LUi-158" value="PB1" style="shape=waypoint;sketch=0;fillStyle=solid;size=6;pointerEvents=1;points=[];fillColor=#e1d5e7;resizable=0;rotatable=0;perimeter=centerPerimeter;snapToPoint=1;strokeColor=#00CC00;spacingLeft=13;fontSize=6;align=left;spacingRight=0;" vertex="1" parent="1">
          <mxGeometry x="110" y="270" width="20" height="20" as="geometry" />
        </mxCell>
        <mxCell id="5__36FcW5yBwgC9I3LUi-159" value="" style="shape=waypoint;sketch=0;fillStyle=solid;size=6;pointerEvents=1;points=[];fillColor=#e1d5e7;resizable=0;rotatable=0;perimeter=centerPerimeter;snapToPoint=1;strokeColor=#ff0000;spacingLeft=0;fontSize=6;align=right;spacingRight=13;" vertex="1" parent="1">
          <mxGeometry x="80" y="100" width="20" height="20" as="geometry" />
        </mxCell>
        <mxCell id="5__36FcW5yBwgC9I3LUi-160" value="" style="shape=waypoint;sketch=0;fillStyle=solid;size=6;pointerEvents=1;points=[];fillColor=#e1d5e7;resizable=0;rotatable=0;perimeter=centerPerimeter;snapToPoint=1;strokeColor=#0E0B0F;spacingLeft=0;fontSize=6;align=right;spacingRight=13;" vertex="1" parent="1">
          <mxGeometry x="80" y="120" width="20" height="20" as="geometry" />
        </mxCell>
        <mxCell id="5__36FcW5yBwgC9I3LUi-161" value="" style="shape=waypoint;sketch=0;fillStyle=solid;size=6;pointerEvents=1;points=[];fillColor=#e1d5e7;resizable=0;rotatable=0;perimeter=centerPerimeter;snapToPoint=1;strokeColor=#00CC00;spacingLeft=0;fontSize=6;align=right;spacingRight=13;" vertex="1" parent="1">
          <mxGeometry x="120" y="100" width="20" height="20" as="geometry" />
        </mxCell>
        <mxCell id="5__36FcW5yBwgC9I3LUi-162" value="" style="shape=waypoint;sketch=0;fillStyle=solid;size=6;pointerEvents=1;points=[];fillColor=#e1d5e7;resizable=0;rotatable=0;perimeter=centerPerimeter;snapToPoint=1;strokeColor=#00CC00;spacingLeft=0;fontSize=6;align=right;spacingRight=13;" vertex="1" parent="1">
          <mxGeometry x="120" y="110" width="20" height="20" as="geometry" />
        </mxCell>
        <mxCell id="5__36FcW5yBwgC9I3LUi-163" value="" style="shape=waypoint;sketch=0;fillStyle=solid;size=6;pointerEvents=1;points=[];fillColor=#e1d5e7;resizable=0;rotatable=0;perimeter=centerPerimeter;snapToPoint=1;strokeColor=#000000;spacingLeft=0;fontSize=6;align=right;spacingRight=13;" vertex="1" parent="1">
          <mxGeometry x="150" y="100" width="20" height="20" as="geometry" />
        </mxCell>
        <mxCell id="5__36FcW5yBwgC9I3LUi-164" value="" style="shape=waypoint;sketch=0;fillStyle=solid;size=6;pointerEvents=1;points=[];fillColor=#e1d5e7;resizable=0;rotatable=0;perimeter=centerPerimeter;snapToPoint=1;strokeColor=#00CC00;spacingLeft=0;fontSize=6;align=right;spacingRight=13;" vertex="1" parent="1">
          <mxGeometry x="150" y="110" width="20" height="20" as="geometry" />
        </mxCell>
        <mxCell id="5__36FcW5yBwgC9I3LUi-167" value="PB5" style="shape=waypoint;sketch=0;fillStyle=solid;size=6;pointerEvents=1;points=[];fillColor=#e1d5e7;resizable=0;rotatable=0;perimeter=centerPerimeter;snapToPoint=1;strokeColor=#00CC00;spacingLeft=0;fontSize=6;align=right;spacingRight=13;" vertex="1" parent="1">
          <mxGeometry x="170" y="140" width="20" height="20" as="geometry" />
        </mxCell>
        <mxCell id="5__36FcW5yBwgC9I3LUi-168" value="" style="endArrow=none;html=1;rounded=0;" edge="1" parent="1" target="5__36FcW5yBwgC9I3LUi-162">
          <mxGeometry width="50" height="50" relative="1" as="geometry">
            <mxPoint x="90" y="109.73999999999998" as="sourcePoint" />
            <mxPoint x="120" y="109.73999999999998" as="targetPoint" />
            <Array as="points">
              <mxPoint x="110" y="110" />
              <mxPoint x="110" y="120" />
            </Array>
          </mxGeometry>
        </mxCell>
        <mxCell id="5__36FcW5yBwgC9I3LUi-170" value="x" style="text;html=1;strokeColor=none;fillColor=none;align=center;verticalAlign=bottom;whiteSpace=wrap;rounded=0;fontSize=6;" vertex="1" parent="1">
          <mxGeometry x="115" y="125" width="10" height="10" as="geometry" />
        </mxCell>
        <mxCell id="5__36FcW5yBwgC9I3LUi-171" value="x" style="text;html=1;strokeColor=none;fillColor=none;align=center;verticalAlign=bottom;whiteSpace=wrap;rounded=0;fontSize=6;" vertex="1" parent="1">
          <mxGeometry x="115" y="115" width="10" height="10" as="geometry" />
        </mxCell>
        <mxCell id="5__36FcW5yBwgC9I3LUi-174" value="" style="endArrow=none;html=1;rounded=0;" edge="1" parent="1" source="5__36FcW5yBwgC9I3LUi-175" target="5__36FcW5yBwgC9I3LUi-173">
          <mxGeometry width="50" height="50" relative="1" as="geometry">
            <mxPoint x="120" y="249.92" as="sourcePoint" />
            <mxPoint x="210" y="250" as="targetPoint" />
          </mxGeometry>
        </mxCell>
        <mxCell id="5__36FcW5yBwgC9I3LUi-177" value="x" style="text;html=1;strokeColor=none;fillColor=none;align=center;verticalAlign=bottom;whiteSpace=wrap;rounded=0;fontSize=6;" vertex="1" parent="1">
          <mxGeometry x="175" y="155" width="10" height="10" as="geometry" />
        </mxCell>
        <mxCell id="5__36FcW5yBwgC9I3LUi-178" value="x" style="text;html=1;strokeColor=none;fillColor=none;align=center;verticalAlign=bottom;whiteSpace=wrap;rounded=0;fontSize=6;" vertex="1" parent="1">
          <mxGeometry x="175" y="165" width="10" height="10" as="geometry" />
        </mxCell>
        <mxCell id="5__36FcW5yBwgC9I3LUi-179" value="x" style="text;html=1;strokeColor=none;fillColor=none;align=center;verticalAlign=bottom;whiteSpace=wrap;rounded=0;fontSize=6;" vertex="1" parent="1">
          <mxGeometry x="175" y="175" width="10" height="10" as="geometry" />
        </mxCell>
        <mxCell id="5__36FcW5yBwgC9I3LUi-180" value="x" style="text;html=1;strokeColor=none;fillColor=none;align=center;verticalAlign=bottom;whiteSpace=wrap;rounded=0;fontSize=6;" vertex="1" parent="1">
          <mxGeometry x="175" y="185" width="10" height="10" as="geometry" />
        </mxCell>
        <mxCell id="5__36FcW5yBwgC9I3LUi-181" value="x" style="text;html=1;strokeColor=none;fillColor=none;align=center;verticalAlign=bottom;whiteSpace=wrap;rounded=0;fontSize=6;" vertex="1" parent="1">
          <mxGeometry x="175" y="225" width="10" height="10" as="geometry" />
        </mxCell>
        <mxCell id="5__36FcW5yBwgC9I3LUi-182" value="x" style="text;html=1;strokeColor=none;fillColor=none;align=center;verticalAlign=bottom;whiteSpace=wrap;rounded=0;fontSize=6;" vertex="1" parent="1">
          <mxGeometry x="185" y="225" width="10" height="10" as="geometry" />
        </mxCell>
        <mxCell id="5__36FcW5yBwgC9I3LUi-183" value="x" style="text;html=1;strokeColor=none;fillColor=none;align=center;verticalAlign=bottom;whiteSpace=wrap;rounded=0;fontSize=6;" vertex="1" parent="1">
          <mxGeometry x="175" y="255" width="10" height="10" as="geometry" />
        </mxCell>
        <mxCell id="5__36FcW5yBwgC9I3LUi-184" value="x" style="text;html=1;strokeColor=none;fillColor=none;align=center;verticalAlign=bottom;whiteSpace=wrap;rounded=0;fontSize=6;" vertex="1" parent="1">
          <mxGeometry x="175" y="265" width="10" height="10" as="geometry" />
        </mxCell>
        <mxCell id="5__36FcW5yBwgC9I3LUi-186" value="" style="endArrow=none;html=1;rounded=0;" edge="1" parent="1" target="5__36FcW5yBwgC9I3LUi-75">
          <mxGeometry width="50" height="50" relative="1" as="geometry">
            <mxPoint x="120" y="290.36" as="sourcePoint" />
            <mxPoint x="160" y="290" as="targetPoint" />
          </mxGeometry>
        </mxCell>
        <mxCell id="5__36FcW5yBwgC9I3LUi-185" value="x" style="text;html=1;strokeColor=none;fillColor=none;align=center;verticalAlign=bottom;whiteSpace=wrap;rounded=0;fontSize=6;" vertex="1" parent="1">
          <mxGeometry x="175" y="285" width="10" height="10" as="geometry" />
        </mxCell>
        <mxCell id="5__36FcW5yBwgC9I3LUi-187" value="x" style="text;html=1;strokeColor=none;fillColor=none;align=center;verticalAlign=bottom;whiteSpace=wrap;rounded=0;fontSize=6;" vertex="1" parent="1">
          <mxGeometry x="175" y="235" width="10" height="10" as="geometry" />
        </mxCell>
        <mxCell id="5__36FcW5yBwgC9I3LUi-188" value="x" style="text;html=1;strokeColor=none;fillColor=none;align=center;verticalAlign=bottom;whiteSpace=wrap;rounded=0;fontSize=6;" vertex="1" parent="1">
          <mxGeometry x="185" y="145" width="10" height="10" as="geometry" />
        </mxCell>
        <mxCell id="5__36FcW5yBwgC9I3LUi-195" value="x" style="text;html=1;strokeColor=none;fillColor=none;align=center;verticalAlign=bottom;whiteSpace=wrap;rounded=0;fontSize=6;" vertex="1" parent="1">
          <mxGeometry x="185" y="165" width="10" height="10" as="geometry" />
        </mxCell>
        <mxCell id="5__36FcW5yBwgC9I3LUi-196" value="x" style="text;html=1;strokeColor=none;fillColor=none;align=center;verticalAlign=bottom;whiteSpace=wrap;rounded=0;fontSize=6;" vertex="1" parent="1">
          <mxGeometry x="185" y="175" width="10" height="10" as="geometry" />
        </mxCell>
        <mxCell id="5__36FcW5yBwgC9I3LUi-197" value="x" style="text;html=1;strokeColor=none;fillColor=none;align=center;verticalAlign=bottom;whiteSpace=wrap;rounded=0;fontSize=6;" vertex="1" parent="1">
          <mxGeometry x="185" y="185" width="10" height="10" as="geometry" />
        </mxCell>
        <mxCell id="5__36FcW5yBwgC9I3LUi-198" value="x" style="text;html=1;strokeColor=none;fillColor=none;align=center;verticalAlign=bottom;whiteSpace=wrap;rounded=0;fontSize=6;" vertex="1" parent="1">
          <mxGeometry x="185" y="155" width="10" height="10" as="geometry" />
        </mxCell>
        <mxCell id="5__36FcW5yBwgC9I3LUi-199" value="x" style="text;html=1;strokeColor=none;fillColor=none;align=center;verticalAlign=bottom;whiteSpace=wrap;rounded=0;fontSize=6;" vertex="1" parent="1">
          <mxGeometry x="185" y="235" width="10" height="10" as="geometry" />
        </mxCell>
        <mxCell id="5__36FcW5yBwgC9I3LUi-200" value="x" style="text;html=1;strokeColor=none;fillColor=none;align=center;verticalAlign=bottom;whiteSpace=wrap;rounded=0;fontSize=6;" vertex="1" parent="1">
          <mxGeometry x="185" y="255" width="10" height="10" as="geometry" />
        </mxCell>
        <mxCell id="5__36FcW5yBwgC9I3LUi-201" value="x" style="text;html=1;strokeColor=none;fillColor=none;align=center;verticalAlign=bottom;whiteSpace=wrap;rounded=0;fontSize=6;" vertex="1" parent="1">
          <mxGeometry x="185" y="265" width="10" height="10" as="geometry" />
        </mxCell>
        <mxCell id="5__36FcW5yBwgC9I3LUi-206" value="" style="endArrow=none;html=1;rounded=0;dashed=1;dashPattern=1 2;fillColor=#f8cecc;strokeColor=#b85450;" edge="1" parent="1">
          <mxGeometry width="50" height="50" relative="1" as="geometry">
            <mxPoint x="220" y="274" as="sourcePoint" />
            <mxPoint x="219.73" y="219" as="targetPoint" />
          </mxGeometry>
        </mxCell>
        <mxCell id="5__36FcW5yBwgC9I3LUi-207" value="" style="endArrow=none;html=1;rounded=0;dashed=1;dashPattern=1 2;fillColor=#f8cecc;strokeColor=#b85450;" edge="1" parent="1">
          <mxGeometry width="50" height="50" relative="1" as="geometry">
            <mxPoint x="220" y="144" as="sourcePoint" />
            <mxPoint x="220" y="100" as="targetPoint" />
          </mxGeometry>
        </mxCell>
        <mxCell id="5__36FcW5yBwgC9I3LUi-208" value="" style="endArrow=none;html=1;rounded=0;" edge="1" parent="1">
          <mxGeometry width="50" height="50" relative="1" as="geometry">
            <mxPoint x="160" y="120" as="sourcePoint" />
            <mxPoint x="170" y="120" as="targetPoint" />
          </mxGeometry>
        </mxCell>
        <mxCell id="5__36FcW5yBwgC9I3LUi-209" value="" style="endArrow=none;html=1;rounded=0;" edge="1" parent="1">
          <mxGeometry width="50" height="50" relative="1" as="geometry">
            <mxPoint x="163" y="110" as="sourcePoint" />
            <mxPoint x="170" y="110" as="targetPoint" />
          </mxGeometry>
        </mxCell>
        <mxCell id="5__36FcW5yBwgC9I3LUi-210" value="x" style="text;html=1;strokeColor=none;fillColor=none;align=center;verticalAlign=bottom;whiteSpace=wrap;rounded=0;fontSize=6;" vertex="1" parent="1">
          <mxGeometry x="175" y="125" width="10" height="10" as="geometry" />
        </mxCell>
        <mxCell id="5__36FcW5yBwgC9I3LUi-211" value="x" style="text;html=1;strokeColor=none;fillColor=none;align=center;verticalAlign=bottom;whiteSpace=wrap;rounded=0;fontSize=6;" vertex="1" parent="1">
          <mxGeometry x="185" y="125" width="10" height="10" as="geometry" />
        </mxCell>
        <mxCell id="5__36FcW5yBwgC9I3LUi-212" value="" style="endArrow=none;html=1;rounded=0;" edge="1" parent="1">
          <mxGeometry width="50" height="50" relative="1" as="geometry">
            <mxPoint x="90" y="129.78" as="sourcePoint" />
            <mxPoint x="210" y="130" as="targetPoint" />
          </mxGeometry>
        </mxCell>
        <mxCell id="5__36FcW5yBwgC9I3LUi-213" value="" style="endArrow=none;html=1;rounded=0;exitX=0.539;exitY=0.351;exitDx=0;exitDy=0;exitPerimeter=0;" edge="1" parent="1" source="5__36FcW5yBwgC9I3LUi-161" target="5__36FcW5yBwgC9I3LUi-118">
          <mxGeometry width="50" height="50" relative="1" as="geometry">
            <mxPoint x="130" y="100" as="sourcePoint" />
            <mxPoint x="240" y="80" as="targetPoint" />
            <Array as="points">
              <mxPoint x="130" y="100" />
              <mxPoint x="230" y="100" />
            </Array>
          </mxGeometry>
        </mxCell>
        <mxCell id="5__36FcW5yBwgC9I3LUi-214" value="x" style="text;html=1;strokeColor=none;fillColor=none;align=center;verticalAlign=bottom;whiteSpace=wrap;rounded=0;fontSize=6;" vertex="1" parent="1">
          <mxGeometry x="185" y="95" width="10" height="10" as="geometry" />
        </mxCell>
        <mxCell id="5__36FcW5yBwgC9I3LUi-216" value="x" style="text;html=1;strokeColor=none;fillColor=none;align=center;verticalAlign=bottom;whiteSpace=wrap;rounded=0;fontSize=6;" vertex="1" parent="1">
          <mxGeometry x="175" y="95" width="10" height="10" as="geometry" />
        </mxCell>
        <mxCell id="5__36FcW5yBwgC9I3LUi-217" value="x" style="text;html=1;strokeColor=none;fillColor=none;align=center;verticalAlign=bottom;whiteSpace=wrap;rounded=0;fontSize=6;" vertex="1" parent="1">
          <mxGeometry x="175" y="105" width="10" height="10" as="geometry" />
        </mxCell>
        <mxCell id="5__36FcW5yBwgC9I3LUi-218" value="x" style="text;html=1;strokeColor=none;fillColor=none;align=center;verticalAlign=bottom;whiteSpace=wrap;rounded=0;fontSize=6;" vertex="1" parent="1">
          <mxGeometry x="175" y="115" width="10" height="10" as="geometry" />
        </mxCell>
        <mxCell id="5__36FcW5yBwgC9I3LUi-219" value="x" style="text;html=1;strokeColor=none;fillColor=none;align=center;verticalAlign=bottom;whiteSpace=wrap;rounded=0;fontSize=6;" vertex="1" parent="1">
          <mxGeometry x="185" y="115" width="10" height="10" as="geometry" />
        </mxCell>
        <mxCell id="5__36FcW5yBwgC9I3LUi-220" value="x" style="text;html=1;strokeColor=none;fillColor=none;align=center;verticalAlign=bottom;whiteSpace=wrap;rounded=0;fontSize=6;" vertex="1" parent="1">
          <mxGeometry x="185" y="105" width="10" height="10" as="geometry" />
        </mxCell>
        <mxCell id="5__36FcW5yBwgC9I3LUi-221" value="" style="endArrow=none;html=1;rounded=0;entryX=1.159;entryY=0.952;entryDx=0;entryDy=0;entryPerimeter=0;" edge="1" parent="1">
          <mxGeometry width="50" height="50" relative="1" as="geometry">
            <mxPoint x="180" y="150" as="sourcePoint" />
            <mxPoint x="170" y="150" as="targetPoint" />
          </mxGeometry>
        </mxCell>
        <mxCell id="5__36FcW5yBwgC9I3LUi-223" value="" style="endArrow=none;html=1;rounded=0;dashed=1;dashPattern=1 2;fillColor=#f8cecc;strokeColor=#b85450;" edge="1" parent="1">
          <mxGeometry width="50" height="50" relative="1" as="geometry">
            <mxPoint x="140" y="283" as="sourcePoint" />
            <mxPoint x="140" y="135" as="targetPoint" />
          </mxGeometry>
        </mxCell>
        <mxCell id="5__36FcW5yBwgC9I3LUi-224" value="21 wide" style="text;html=1;align=center;verticalAlign=middle;resizable=0;points=[];autosize=1;strokeColor=none;fillColor=none;" vertex="1" parent="1">
          <mxGeometry x="145" y="295" width="60" height="30" as="geometry" />
        </mxCell>
        <mxCell id="5__36FcW5yBwgC9I3LUi-225" value="21 high" style="text;html=1;align=center;verticalAlign=middle;resizable=0;points=[];autosize=1;strokeColor=none;fillColor=none;rotation=-90;" vertex="1" parent="1">
          <mxGeometry x="260" y="130" width="60" height="30" as="geometry" />
        </mxCell>
        <mxCell id="5__36FcW5yBwgC9I3LUi-227" value="Used pin" style="shape=waypoint;sketch=0;fillStyle=solid;size=6;pointerEvents=1;points=[];fillColor=#e1d5e7;resizable=0;rotatable=0;perimeter=centerPerimeter;snapToPoint=1;strokeColor=#00CC00;spacingLeft=13;fontSize=6;align=left;spacingRight=0;" vertex="1" parent="1">
          <mxGeometry x="280" y="205" width="20" height="20" as="geometry" />
        </mxCell>
        <mxCell id="5__36FcW5yBwgC9I3LUi-228" value="Power" style="shape=waypoint;sketch=0;fillStyle=solid;size=6;pointerEvents=1;points=[];fillColor=#e1d5e7;resizable=0;rotatable=0;perimeter=centerPerimeter;snapToPoint=1;strokeColor=#FF0000;spacingLeft=13;fontSize=6;align=left;spacingRight=0;" vertex="1" parent="1">
          <mxGeometry x="280" y="215" width="20" height="20" as="geometry" />
        </mxCell>
        <mxCell id="5__36FcW5yBwgC9I3LUi-229" value="Ground" style="shape=waypoint;sketch=0;fillStyle=solid;size=6;pointerEvents=1;points=[];fillColor=#e1d5e7;resizable=0;rotatable=0;perimeter=centerPerimeter;snapToPoint=1;strokeColor=#000000;spacingLeft=13;fontSize=6;align=left;spacingRight=0;" vertex="1" parent="1">
          <mxGeometry x="280" y="225" width="20" height="20" as="geometry" />
        </mxCell>
        <mxCell id="5__36FcW5yBwgC9I3LUi-230" value="x" style="text;html=1;strokeColor=none;fillColor=none;align=center;verticalAlign=bottom;whiteSpace=wrap;rounded=0;fontSize=6;" vertex="1" parent="1">
          <mxGeometry x="285" y="240" width="10" height="10" as="geometry" />
        </mxCell>
        <mxCell id="5__36FcW5yBwgC9I3LUi-233" value="Remove header pin" style="shape=waypoint;sketch=0;fillStyle=solid;size=6;pointerEvents=1;points=[];fillColor=#e1d5e7;resizable=0;rotatable=0;perimeter=centerPerimeter;snapToPoint=1;strokeColor=none;spacingLeft=13;fontSize=6;align=left;spacingRight=0;" vertex="1" parent="1">
          <mxGeometry x="280" y="235" width="20" height="20" as="geometry" />
        </mxCell>
        <mxCell id="5__36FcW5yBwgC9I3LUi-236" value="" style="endArrow=none;html=1;rounded=0;entryX=1.159;entryY=0.952;entryDx=0;entryDy=0;entryPerimeter=0;" edge="1" parent="1">
          <mxGeometry width="50" height="50" relative="1" as="geometry">
            <mxPoint x="295" y="255" as="sourcePoint" />
            <mxPoint x="285" y="255" as="targetPoint" />
          </mxGeometry>
        </mxCell>
        <mxCell id="5__36FcW5yBwgC9I3LUi-237" value="Board strip (horizontal)" style="edgeLabel;html=1;align=left;verticalAlign=middle;resizable=0;points=[];fontSize=6;spacingRight=0;spacingLeft=9;" vertex="1" connectable="0" parent="5__36FcW5yBwgC9I3LUi-236">
          <mxGeometry x="0.5931" relative="1" as="geometry">
            <mxPoint as="offset" />
          </mxGeometry>
        </mxCell>
        <mxCell id="5__36FcW5yBwgC9I3LUi-239" value="" style="endArrow=none;html=1;rounded=0;entryX=1.159;entryY=0.952;entryDx=0;entryDy=0;entryPerimeter=0;fillColor=#dae8fc;strokeColor=#6c8ebf;" edge="1" parent="1">
          <mxGeometry width="50" height="50" relative="1" as="geometry">
            <mxPoint x="295" y="264.66" as="sourcePoint" />
            <mxPoint x="285" y="264.66" as="targetPoint" />
          </mxGeometry>
        </mxCell>
        <mxCell id="5__36FcW5yBwgC9I3LUi-240" value="Wire on top" style="edgeLabel;html=1;align=left;verticalAlign=middle;resizable=0;points=[];fontSize=6;spacingRight=0;spacingLeft=9;" vertex="1" connectable="0" parent="5__36FcW5yBwgC9I3LUi-239">
          <mxGeometry x="0.5931" relative="1" as="geometry">
            <mxPoint as="offset" />
          </mxGeometry>
        </mxCell>
        <mxCell id="5__36FcW5yBwgC9I3LUi-241" value="" style="endArrow=none;html=1;rounded=0;dashed=1;dashPattern=1 2;fillColor=#f8cecc;strokeColor=#b85450;" edge="1" parent="1">
          <mxGeometry width="50" height="50" relative="1" as="geometry">
            <mxPoint x="290" y="300" as="sourcePoint" />
            <mxPoint x="290.1" y="290" as="targetPoint" />
          </mxGeometry>
        </mxCell>
        <mxCell id="5__36FcW5yBwgC9I3LUi-242" value="Drill out board strip" style="edgeLabel;html=1;align=left;verticalAlign=middle;resizable=0;points=[];fontSize=6;spacingRight=0;spacingLeft=9;" vertex="1" connectable="0" parent="1">
          <mxGeometry x="286.9989655172414" y="294.6600000000001" as="geometry" />
        </mxCell>
        <mxCell id="5__36FcW5yBwgC9I3LUi-243" value="x" style="text;html=1;strokeColor=none;fillColor=none;align=center;verticalAlign=bottom;whiteSpace=wrap;rounded=0;fontSize=6;" vertex="1" parent="1">
          <mxGeometry x="115" y="235" width="10" height="10" as="geometry" />
        </mxCell>
        <mxCell id="5__36FcW5yBwgC9I3LUi-244" value="x" style="text;html=1;strokeColor=none;fillColor=none;align=center;verticalAlign=bottom;whiteSpace=wrap;rounded=0;fontSize=6;" vertex="1" parent="1">
          <mxGeometry x="115" y="255" width="10" height="10" as="geometry" />
        </mxCell>
        <mxCell id="5__36FcW5yBwgC9I3LUi-245" value="x" style="text;html=1;strokeColor=none;fillColor=none;align=center;verticalAlign=bottom;whiteSpace=wrap;rounded=0;fontSize=6;" vertex="1" parent="1">
          <mxGeometry x="115" y="265" width="10" height="10" as="geometry" />
        </mxCell>
        <mxCell id="5__36FcW5yBwgC9I3LUi-246" value="x" style="text;html=1;strokeColor=none;fillColor=none;align=center;verticalAlign=bottom;whiteSpace=wrap;rounded=0;fontSize=6;" vertex="1" parent="1">
          <mxGeometry x="115" y="215" width="10" height="10" as="geometry" />
        </mxCell>
        <mxCell id="5__36FcW5yBwgC9I3LUi-247" value="x" style="text;html=1;strokeColor=none;fillColor=none;align=center;verticalAlign=bottom;whiteSpace=wrap;rounded=0;fontSize=6;" vertex="1" parent="1">
          <mxGeometry x="115" y="205" width="10" height="10" as="geometry" />
        </mxCell>
        <mxCell id="5__36FcW5yBwgC9I3LUi-248" value="x" style="text;html=1;strokeColor=none;fillColor=none;align=center;verticalAlign=bottom;whiteSpace=wrap;rounded=0;fontSize=6;" vertex="1" parent="1">
          <mxGeometry x="115" y="195" width="10" height="10" as="geometry" />
        </mxCell>
        <mxCell id="5__36FcW5yBwgC9I3LUi-249" value="x" style="text;html=1;strokeColor=none;fillColor=none;align=center;verticalAlign=bottom;whiteSpace=wrap;rounded=0;fontSize=6;" vertex="1" parent="1">
          <mxGeometry x="115" y="135" width="10" height="10" as="geometry" />
        </mxCell>
        <mxCell id="5__36FcW5yBwgC9I3LUi-250" value="" style="endArrow=none;html=1;rounded=0;entryX=1.159;entryY=0.952;entryDx=0;entryDy=0;entryPerimeter=0;fillColor=#e1d5e7;strokeColor=#9673a6;" edge="1" parent="1">
          <mxGeometry width="50" height="50" relative="1" as="geometry">
            <mxPoint x="295" y="285" as="sourcePoint" />
            <mxPoint x="285" y="285" as="targetPoint" />
          </mxGeometry>
        </mxCell>
        <mxCell id="5__36FcW5yBwgC9I3LUi-251" value="Resistor" style="edgeLabel;html=1;align=left;verticalAlign=middle;resizable=0;points=[];fontSize=6;spacingRight=0;spacingLeft=9;" vertex="1" connectable="0" parent="5__36FcW5yBwgC9I3LUi-250">
          <mxGeometry x="0.5931" relative="1" as="geometry">
            <mxPoint as="offset" />
          </mxGeometry>
        </mxCell>
        <mxCell id="5__36FcW5yBwgC9I3LUi-252" value="Unused pin" style="shape=waypoint;sketch=0;fillStyle=solid;size=6;pointerEvents=1;points=[];fillColor=#e1d5e7;resizable=0;rotatable=0;perimeter=centerPerimeter;snapToPoint=1;strokeColor=#CCCCCC;spacingLeft=13;fontSize=6;align=left;spacingRight=0;" vertex="1" parent="1">
          <mxGeometry x="280" y="195" width="20" height="20" as="geometry" />
        </mxCell>
        <mxCell id="5__36FcW5yBwgC9I3LUi-255" value="" style="endArrow=none;html=1;rounded=0;entryX=1.159;entryY=0.952;entryDx=0;entryDy=0;entryPerimeter=0;fillColor=#dae8fc;strokeColor=#6c8ebf;" edge="1" parent="1">
          <mxGeometry width="50" height="50" relative="1" as="geometry">
            <mxPoint x="295" y="274.66" as="sourcePoint" />
            <mxPoint x="285" y="274.66" as="targetPoint" />
          </mxGeometry>
        </mxCell>
        <mxCell id="5__36FcW5yBwgC9I3LUi-256" value="Wire on bottom" style="edgeLabel;html=1;align=left;verticalAlign=middle;resizable=0;points=[];fontSize=6;spacingRight=0;spacingLeft=9;" vertex="1" connectable="0" parent="5__36FcW5yBwgC9I3LUi-255">
          <mxGeometry x="0.5931" relative="1" as="geometry">
            <mxPoint as="offset" />
          </mxGeometry>
        </mxCell>
        <mxCell id="5__36FcW5yBwgC9I3LUi-257" value="" style="endArrow=none;html=1;rounded=0;dashed=1;dashPattern=1 2;fillColor=#f8cecc;strokeColor=#b85450;" edge="1" parent="1">
          <mxGeometry width="50" height="50" relative="1" as="geometry">
            <mxPoint x="200" y="125" as="sourcePoint" />
            <mxPoint x="200" y="105" as="targetPoint" />
          </mxGeometry>
        </mxCell>
        <mxCell id="5__36FcW5yBwgC9I3LUi-258" value="" style="endArrow=none;html=1;rounded=0;dashed=1;dashPattern=1 2;fillColor=#f8cecc;strokeColor=#b85450;" edge="1" parent="1">
          <mxGeometry width="50" height="50" relative="1" as="geometry">
            <mxPoint x="140" y="125" as="sourcePoint" />
            <mxPoint x="140" y="105" as="targetPoint" />
          </mxGeometry>
        </mxCell>
      </root>
    </mxGraphModel>
  </diagram>
</mxfile>
